<?xml version="1.0" standalone="no"?><!DOCTYPE svg PUBLIC "-//W3C//DTD SVG 1.1//EN" "http://www.w3.org/Graphics/SVG/1.1/DTD/svg11.dtd"><svg t="1611748528741" class="icon" viewBox="0 0 1024 1024" version="1.1" xmlns="http://www.w3.org/2000/svg" p-id="50832" xmlns:xlink="http://www.w3.org/1999/xlink" width="200" height="200"><defs><style type="text/css"></style></defs><path d="M133.336 914.896a381.336 81.488 0 1 0 762.672 0 381.336 81.488 0 1 0-762.672 0z" fill="#B8CBCD" p-id="50833"></path><path d="M373.336 769.4a87.68 87.68 0 0 1-24-3.4v123.4a56 56 0 1 0 112 0v-120h-88z" fill="#B2EDA6" p-id="50834"></path><path d="M405.336 961.4c-39.696 0-72-32.296-72-72V766a16.008 16.008 0 0 1 20.36-15.392 72.248 72.248 0 0 0 19.64 2.792h88a16 16 0 0 1 16 16v120c0 39.704-32.304 72-72 72z m-40-176.32V889.4c0 22.056 17.944 40 40 40s40-17.944 40-40v-104h-72c-2.664 0-5.328-0.112-8-0.32z" fill="#3C663E" p-id="50835"></path><path d="M661.336 769.4c8.328 0 16.36-1.232 24-3.4v123.4a56 56 0 1 1-112 0v-120h88z" fill="#B2EDA6" p-id="50836"></path><path d="M629.336 961.4c-39.696 0-72-32.296-72-72v-120a16 16 0 0 1 16-16h88c6.496 0 13.096-0.936 19.64-2.792A15.984 15.984 0 0 1 701.344 766v123.4c-0.008 39.704-32.312 72-72.008 72z m-40-176v104c0 22.056 17.944 40 40 40s40-17.944 40-40V785.08c-2.672 0.208-5.344 0.32-8 0.32h-72z" fill="#3C663E" p-id="50837"></path><path d="M765.336 393.4v368c0 35.344-104.824 64-244 64s-252-28.656-252-64v-368" fill="#B2EDA6" p-id="50838"></path><path d="M521.336 841.4c-92.696 0-268-16.72-268-80v-368a16 16 0 0 1 32 0v368c0 14.352 80.296 48 236 48 157.888 0 228-34.784 228-48v-368a16 16 0 0 1 32 0v368c0 55.264-130.592 80-260 80z m128-644a23.984 23.984 0 0 1-16.968-40.968l108-108a23.984 23.984 0 0 1 33.936 0 23.984 23.984 0 0 1 0 33.936l-108 108a23.928 23.928 0 0 1-16.968 7.032z m-252 0a23.904 23.904 0 0 1-16.968-7.032l-108-108a23.984 23.984 0 0 1 0-33.936 23.984 23.984 0 0 1 33.936 0l108 108a23.984 23.984 0 0 1-16.968 40.968z" fill="#3C663E" p-id="50839"></path><path d="M877.336 661.4a56 56 0 1 1-112 0v-224a56 56 0 1 1 112 0v224z" fill="#B2EDA6" p-id="50840"></path><path d="M821.336 733.4c-39.696 0-72-32.296-72-72v-224c0-39.704 32.304-72 72-72s72 32.296 72 72v224c0 39.704-32.304 72-72 72z m0-336c-22.056 0-40 17.944-40 40v224c0 22.056 17.944 40 40 40s40-17.944 40-40v-224c0-22.056-17.944-40-40-40z" fill="#3C663E" p-id="50841"></path><path d="M269.336 661.4a56 56 0 1 1-112 0v-224a56 56 0 1 1 112 0v224z" fill="#B2EDA6" p-id="50842"></path><path d="M213.336 733.4c-39.696 0-72-32.296-72-72v-224c0-39.704 32.304-72 72-72s72 32.296 72 72v224c0 39.704-32.304 72-72 72z m0-336c-22.056 0-40 17.944-40 40v224c0 22.056 17.944 40 40 40s40-17.944 40-40v-224c0-22.056-17.944-40-40-40zM725.336 809.4a24 24 0 0 1-24-24v-352a24 24 0 1 1 48 0v352a24 24 0 0 1-24 24z" fill="#3C663E" p-id="50843"></path><path d="M309.336 809.4a24 24 0 0 1-24-24v-352a24 24 0 1 1 48 0v352a24 24 0 0 1-24 24z m72 8.328a16 16 0 0 1-16-16V433.4a16 16 0 0 1 32 0v368.328a16 16 0 0 1-16 16z" fill="#FFFFFF" p-id="50844"></path><path d="M517.336 145.4c-136.968 0-248 111.032-248 248 0 35.344 112.824 64 252 64s244-28.656 244-64c0-136.968-111.04-248-248-248z" fill="#B2EDA6" p-id="50845"></path><path d="M521.336 473.4c-92.696 0-268-16.72-268-80 0-145.568 118.432-264 264-264s264 118.432 264 264c0 55.264-130.592 80-260 80z m-4-312c-127.928 0-232 104.08-232 232 0 14.352 80.296 48 236 48 157.888 0 228-34.784 228-48 0-127.92-104.08-232-232-232z" fill="#3C663E" p-id="50846"></path><path d="M381.336 321.4a32 32 0 1 0 64 0 32 32 0 1 0-64 0z" fill="#FFFFFF" p-id="50847"></path><path d="M413.336 369.4c-26.472 0-48-21.528-48-48s21.528-48 48-48 48 21.528 48 48c0 26.464-21.536 48-48 48z m0-64c-8.824 0-16 7.176-16 16 0 8.816 7.176 16 16 16s16-7.184 16-16c0-8.824-7.176-16-16-16z" fill="#3C663E" p-id="50848"></path><path d="M589.336 321.4a32 32 0 1 0 64 0 32 32 0 1 0-64 0z" fill="#FFFFFF" p-id="50849"></path><path d="M621.336 369.4c-26.472 0-48-21.528-48-48s21.528-48 48-48 48 21.528 48 48c0 26.464-21.536 48-48 48z m0-64c-8.824 0-16 7.176-16 16 0 8.816 7.176 16 16 16s16-7.184 16-16c0-8.824-7.176-16-16-16z" fill="#3C663E" p-id="50850"></path><path d="M629.336 969.4c-44.112 0-80-35.888-80-80v-32.392c-21.176 0.584-42.728 0.504-64-0.248v32.64c0 44.112-35.888 80-80 80s-80-35.888-80-80v-54.616c-59.92-16.544-88-37.52-88-65.384v-31.88a73.848 73.848 0 0 1-24 3.872c-44.112 0-80-35.888-80-80v-224c0-44.112 35.888-80 80-80a79.52 79.52 0 0 1 33.496 7.352c14.36-136.56 130.2-243.352 270.504-243.352s256.136 106.792 270.504 243.36a79.52 79.52 0 0 1 33.496-7.352c44.112 0 80 35.888 80 80v224c0 44.112-35.888 80-80 80a73.848 73.848 0 0 1-24-3.872V769.4c0 28.168-28.832 49.976-88 66.416V889.4c0 44.104-35.888 80-80 80z m-56-161.392a24 24 0 0 1 24 24V889.4c0 17.648 14.352 32 32 32s32-14.352 32-32v-72.208c0-11.136 7.648-20.808 18.488-23.36 46.368-10.944 64.912-22.48 69.512-27.232V661.4c0-13.256 3.992-24 17.248-24s15.248 10.744 15.248 24c0 7.504 7.504 32 39.504 32 17.648 0 32-14.352 32-32v-224c0-17.648-14.352-32-32-32s-40 14.352-40 32c0 13.256-2.744 24-16 24s-16-22.24-16-35.504l-8-32.504c0-123.52-100.488-224-224-224s-224 109.64-224 233.152l-8.504 34.848c0 13.256-2.248 24-15.504 24S252.08 445.4 252.08 432.144c0-17.648-21.104-26.752-38.752-26.752s-32 14.352-32 32v224c0 17.648 14.352 32 32 32 36 0 41-22.992 41-30.504 0-13.256-2.232-25.144 11.016-25.144 13.256 0 19.984 10.384 19.984 23.64v104.72c4.976 4.712 23.784 15.824 69.544 26.68a24 24 0 0 1 18.456 23.352v73.248c0 17.648 14.352 32 32 32s32-14.352 32-32v-57.84a24.035 24.035 0 0 1 7.56-17.496 24.032 24.032 0 0 1 17.928-6.464c35.92 2.24 73.696 2.384 109.208 0.448l1.312-0.024z" fill="#3C663E" p-id="50851"></path><path d="M521.336 841.4c-92.696 0-268-16.72-268-80v-368a16 16 0 0 1 32 0v368c0 14.352 80.296 48 236 48 157.888 0 228-34.784 228-48v-368a16 16 0 0 1 32 0v368c0 55.264-130.592 80-260 80z" fill="#3C663E" p-id="50852"></path></svg>