<?xml version="1.0" standalone="no"?><!DOCTYPE svg PUBLIC "-//W3C//DTD SVG 1.1//EN" "http://www.w3.org/Graphics/SVG/1.1/DTD/svg11.dtd"><svg t="1611916505249" class="icon" viewBox="0 0 1024 1024" version="1.1" xmlns="http://www.w3.org/2000/svg" p-id="11389" xmlns:xlink="http://www.w3.org/1999/xlink" width="200" height="200"><defs><style type="text/css"></style></defs><path d="M259.938462 446.358974l-146.160684-253.811965c93.647863-117.278632 238.05812-192.547009 399.972649-192.547009 187.295726 0 350.960684 100.649573 440.232479 251.186325h-417.476923c-7.001709-0.875214-14.878632-0.875214-22.755556-0.875214-121.654701 0-224.054701 83.145299-253.811965 196.047863z" fill="#FF575A" p-id="11390"></path><path d="M694.044444 323.82906h294.071795c22.755556 57.764103 35.008547 121.654701 35.008547 187.295726 0 280.94359-226.680342 509.374359-507.623931 512.875214l210.051282-363.213675c29.757265-42.010256 47.261538-93.647863 47.261538-149.661539 0.875214-73.517949-29.757265-140.034188-78.769231-187.295726z" fill="#FFC056" p-id="11391"></path><path d="M332.581197 512c0-104.150427 84.020513-188.17094 188.17094-188.17094s188.17094 84.020513 188.17094 188.17094-84.895726 188.17094-188.17094 188.17094-188.17094-84.020513-188.17094-188.17094z" fill="#44A0FF" p-id="11392"></path><path d="M586.393162 759.68547l-147.911111 255.562393c-248.560684-36.758974-438.482051-251.186325-438.482051-509.374359 0-91.897436 24.505983-177.668376 66.516239-252.061538l210.051282 364.088889c42.010256 89.271795 133.032479 151.411966 238.933334 151.411966 24.505983 0 48.136752-3.500855 70.892307-9.627351z" fill="#24C577" p-id="11393"></path></svg>