<?xml version="1.0" standalone="no"?><!DOCTYPE svg PUBLIC "-//W3C//DTD SVG 1.1//EN" "http://www.w3.org/Graphics/SVG/1.1/DTD/svg11.dtd"><svg t="1611922929174" class="icon" viewBox="0 0 1024 1024" version="1.1" xmlns="http://www.w3.org/2000/svg" p-id="14889" xmlns:xlink="http://www.w3.org/1999/xlink" width="200" height="200"><defs><style type="text/css"></style></defs><path d="M512 512m-512 0a512 512 0 1 0 1024 0 512 512 0 1 0-1024 0Z" fill="#FBD000" p-id="14890"></path><path d="M944 237.6c0-0.8-0.8-0.8-0.8-1.6H80.8c-3.2 4.8-5.6 8.8-8.8 13.6v523.2c31.2 52.8 72 99.2 119.2 136.8l640 0.8c46.4-36.8 85.6-81.6 116.8-132l-4-540.8z" fill="#FBD000" p-id="14891"></path><path d="M456 952c-17.6 0-32-14.4-32-32s14.4-32 32-32 32 14.4 32 32-14.4 32-32 32z m0-48.8c-9.6 0-16.8 8-16.8 16.8 0 9.6 8 16.8 16.8 16.8s16.8-8 16.8-16.8c0-9.6-7.2-16.8-16.8-16.8zM450.4 88c0-3.2-3.2-6.4-8-7.2l-15.2-2.4c-4-0.8-8.8-4.8-8.8-8.8L416 55.2c-0.8-4-4-8-7.2-8s-6.4 3.2-7.2 8L400 69.6c-0.8 4-4.8 8.8-8.8 8.8l-15.2 3.2c-4 0.8-8 4-8 7.2s3.2 6.4 8 7.2l15.2 2.4c4 0.8 8.8 4.8 8.8 8.8l2.4 15.2c0.8 4 4 8 7.2 8s6.4-3.2 7.2-8l2.4-16.8c0.8-4 4.8-8 8.8-8.8l14.4-0.8c4-1.6 8-4.8 8-8z" fill="#FFFFFF" p-id="14892"></path><path d="M948.8 800.8c0 17.6-14.4 32-32 32L104 832c-17.6 0-32-14.4-32-32V189.6c0-17.6 14.4-32 32-32h808c17.6 0 32 14.4 32 32l4.8 611.2z" fill="#415E6D" p-id="14893"></path><path d="M949.6 280.8H72V189.6c0-17.6 14.4-32 32-32h813.6c4 0 32 14.4 32 32v91.2z" fill="#EAEAEA" p-id="14894"></path><path d="M912 840H104c-22.4 0-40-17.6-40-40V192c0-22.4 17.6-40 40-40h808c10.4 0 20.8 4 28 12 7.2 7.2 12 17.6 12 28v608c0 22.4-17.6 40-40 40zM104 168c-13.6 0-24 10.4-24 24v608c0 13.6 10.4 24 24 24h808c13.6 0 24-10.4 24-24V192c0-6.4-2.4-12-7.2-16.8-4.8-4.8-10.4-7.2-16.8-7.2H104z" fill="#233E49" p-id="14895"></path><path d="M360 200h536v40H360z" fill="#D4D6D6" p-id="14896"></path><path d="M940.8 288H72c-4.8 0-8-3.2-8-8s3.2-8 8-8h868.8c4.8 0 8 3.2 8 8s-4 8-8 8z" fill="#233E49" p-id="14897"></path><path d="M368 360H160c-8.8 0-16-7.2-16-16s7.2-16 16-16h208c8.8 0 16 7.2 16 16s-7.2 16-16 16z" fill="#2EBC93" p-id="14898"></path><path d="M656 360H448c-8.8 0-16-7.2-16-16s7.2-16 16-16h208c8.8 0 16 7.2 16 16s-7.2 16-16 16zM616 432H160c-8.8 0-16-7.2-16-16s7.2-16 16-16h456c8.8 0 16 7.2 16 16s-7.2 16-16 16zM856 504h-72c-8.8 0-16-7.2-16-16s7.2-16 16-16h72c8.8 0 16 7.2 16 16s-7.2 16-16 16zM704 504H496c-8.8 0-16-7.2-16-16s7.2-16 16-16h208c8.8 0 16 7.2 16 16s-7.2 16-16 16z" fill="#FFFFFF" p-id="14899"></path><path d="M408 504H160c-8.8 0-16-7.2-16-16s7.2-16 16-16h248c8.8 0 16 7.2 16 16s-7.2 16-16 16z" fill="#0EB8E0" p-id="14900"></path><path d="M784 576H648c-8.8 0-16-7.2-16-16s7.2-16 16-16h136c8.8 0 16 7.2 16 16s-7.2 16-16 16zM568 576H368c-8.8 0-16-7.2-16-16s7.2-16 16-16h200c8.8 0 16 7.2 16 16s-7.2 16-16 16z" fill="#FFFFFF" p-id="14901"></path><path d="M272 576H160c-8.8 0-16-7.2-16-16s7.2-16 16-16h112c8.8 0 16 7.2 16 16s-7.2 16-16 16zM856 648H768c-8.8 0-16-7.2-16-16s7.2-16 16-16h88c8.8 0 16 7.2 16 16s-7.2 16-16 16z" fill="#EA5E5E" p-id="14902"></path><path d="M672 648H512c-8.8 0-16-7.2-16-16s7.2-16 16-16h160c8.8 0 16 7.2 16 16s-7.2 16-16 16z" fill="#0EB8E0" p-id="14903"></path><path d="M416 648H160c-8.8 0-16-7.2-16-16s7.2-16 16-16h256c8.8 0 16 7.2 16 16s-7.2 16-16 16z" fill="#FFFFFF" p-id="14904"></path><path d="M360 720H160c-8.8 0-16-7.2-16-16s7.2-16 16-16h200c8.8 0 16 7.2 16 16s-7.2 16-16 16z" fill="#0EB8E0" p-id="14905"></path><path d="M212 220m-20 0a20 20 0 1 0 40 0 20 20 0 1 0-40 0Z" fill="#92C438" p-id="14906"></path><path d="M140 220m-20 0a20 20 0 1 0 40 0 20 20 0 1 0-40 0Z" fill="#F74541" p-id="14907"></path><path d="M284 220m-20 0a20 20 0 1 0 40 0 20 20 0 1 0-40 0Z" fill="#FBD000" p-id="14908"></path></svg>