<?xml version="1.0" standalone="no"?><!DOCTYPE svg PUBLIC "-//W3C//DTD SVG 1.1//EN" "http://www.w3.org/Graphics/SVG/1.1/DTD/svg11.dtd"><svg t="1612860501637" class="icon" viewBox="0 0 1024 1024" version="1.1" xmlns="http://www.w3.org/2000/svg" p-id="31262" xmlns:xlink="http://www.w3.org/1999/xlink" width="200" height="200"><defs><style type="text/css"></style></defs><path d="M212.48 500.053333a21.333333 21.333333 0 0 0 18.773333-32.426666c-24.32-42.666667-29.226667-82.346667-14.293333-108.8 23.68-40.96 95.146667-53.973333 186.88-33.92a21.76 21.76 0 0 0 9.173333-42.666667c-110.72-23.466667-198.613333-3.2-232.533333 55.04-23.466667 40.533333-18.986667 93.013333 13.226667 151.68a21.333333 21.333333 0 0 0 18.773333 11.093333z m608.64 154.453334a64 64 0 0 0-60.586667 67.2v4.48c-70.826667 29.44-204.373333 1.92-327.893333-69.546667a665.386667 665.386667 0 0 1-128-95.146667 21.333333 21.333333 0 0 0-29.226667 30.933334 708.906667 708.906667 0 0 0 136.533334 101.12c98.346667 56.746667 199.04 87.04 279.466666 87.04 30.293333 0.64 60.373333-4.906667 88.533334-16.426667a64 64 0 0 0 44.373333 18.133333h3.413333a64 64 0 0 0-6.613333-128v0.213334z m4.48 85.333333a21.333333 21.333333 0 1 1-2.133333-42.666667 21.333333 21.333333 0 0 1 2.133333 42.666667z m-199.04 49.706667a21.333333 21.333333 0 0 0-29.226667 7.68c-25.386667 42.666667-56.32 67.84-87.04 68.266666-46.933333 0-94.506667-54.613333-124.373333-142.72a21.333333 21.333333 0 1 0-40.32 13.653334c36.48 106.666667 97.92 170.666667 164.693333 170.666666H512c46.293333 0 90.026667-32.426667 123.093333-89.386666a21.333333 21.333333 0 0 0-8.533333-28.16z" fill="#05BFF5" p-id="31263"></path><path d="M506.026667 224a64 64 0 0 0 35.626666-10.88l3.626667-2.986667c61.653333 45.653333 106.666667 174.293333 109.44 316.8 1.28 53.333333-3.84 106.666667-15.36 158.933334a21.333333 21.333333 0 0 0 16.213333 25.386666h4.693334a21.333333 21.333333 0 0 0 21.333333-16.853333c12.16-55.466667 17.706667-112.213333 16.426667-168.96-2.773333-161.066667-53.973333-298.666667-129.066667-352a64 64 0 1 0-62.08 49.92l-0.853333 0.64z m-11.733334-81.706667a21.333333 21.333333 0 1 1 23.893334 35.413334 21.333333 21.333333 0 0 1-23.893334-35.413334z m203.733334 171.093334c50.346667 0 86.826667 14.72 102.613333 41.173333 24.32 40.533333 0 109.44-60.8 179.84a21.333333 21.333333 0 1 0 31.786667 28.373333c75.733333-85.333333 100.053333-172.16 65.493333-229.973333-24.106667-40.32-72.106667-61.653333-139.093333-61.866667a21.333333 21.333333 0 0 0 0 42.666667v-0.213333z" fill="#05BFF5" p-id="31264"></path><path d="M219.946667 653.653333l-4.266667-1.493333c8.533333-76.16 97.493333-179.626667 219.733333-253.226667a664.96 664.96 0 0 1 145.493334-66.133333 21.333333 21.333333 0 0 0-12.8-40.746667 708.266667 708.266667 0 0 0-154.666667 70.4C275.2 446.293333 181.546667 558.506667 173.013333 650.24a64 64 0 1 0 46.933334 3.413333z m-8.96 66.986667a21.333333 21.333333 0 1 1-38.4-18.773333 21.333333 21.333333 0 0 1 38.4 18.773333z" fill="#05BFF5" p-id="31265"></path><path d="M504.96 531.626667m-53.333333 0a53.333333 53.333333 0 1 0 106.666666 0 53.333333 53.333333 0 1 0-106.666666 0Z" fill="#05BFF5" p-id="31266"></path></svg>