<?xml version="1.0" standalone="no"?><!DOCTYPE svg PUBLIC "-//W3C//DTD SVG 1.1//EN" "http://www.w3.org/Graphics/SVG/1.1/DTD/svg11.dtd"><svg t="1611645890700" class="icon" viewBox="0 0 1024 1024" version="1.1" xmlns="http://www.w3.org/2000/svg" p-id="20374" xmlns:xlink="http://www.w3.org/1999/xlink" width="200" height="200"><defs><style type="text/css"></style></defs><path d="M401.759093 512.062893m73.131887 0l365.659437 0q73.131887 0 73.131888 73.131888l0 329.093493q0 73.131887-73.131888 73.131887l-365.659437 0q-73.131887 0-73.131887-73.131887l0-329.093493q0-73.131887 73.131887-73.131888Z" fill="#FE9E0E" p-id="20375"></path><path d="M569.706472 66.250908a32.580256 32.580256 0 0 1-32.909349-31.958635 33.7138 33.7138 0 0 1 11.774234-25.59616 36.127152 36.127152 0 0 1 27.424458-8.483299h275.195292a100.885439 100.885439 0 0 1 70.096914 28.11921A94.449833 94.449833 0 0 1 950.248248 96.34468v831.692389A97.594504 97.594504 0 0 1 851.081409 1023.986105H171.905571A97.594504 97.594504 0 0 1 72.6656 928.037069V343.603591a33.238443 33.238443 0 0 1 0-5.119232v-21.500775h0.548489a29.691546 29.691546 0 0 1 10.969783-22.597753l343.025118-285.214361a35.724927 35.724927 0 0 1 26.254347-8.044508 32.433992 32.433992 0 0 1 31.044487 31.995201v300.425793a32.287728 32.287728 0 0 1-0.18283 3.656595 31.37358 31.37358 0 0 1-8.007942 25.157369 33.677234 33.677234 0 0 1-24.755144 10.969783h-310.810521v540.700609a43.879132 43.879132 0 0 0 13.565965 31.666108 46.987238 46.987238 0 0 0 32.72652 13.127173h642.097971a53.715371 53.715371 0 0 0 37.370394-14.992037 50.314739 50.314739 0 0 0 15.50396-36.200284V117.772323a52.069904 52.069904 0 0 0-52.874354-51.192321H569.962434v-0.36566zM167.737054 309.121906h250.696109v-208.425879L167.737054 309.121906z m131.381435 194.494254H727.195992a31.995201 31.995201 0 1 1 0 63.953836H299.118489a31.995201 31.995201 0 1 1 0-63.953836z m0 191.934639H727.195992a31.995201 31.995201 0 1 1 0 63.953835H299.118489a31.995201 31.995201 0 1 1 0-63.953835z m0 0" fill="#333333" p-id="20376"></path><path d="M569.706472 66.250908a32.580256 32.580256 0 0 1-32.909349-31.958635 33.7138 33.7138 0 0 1 11.774234-25.59616 36.127152 36.127152 0 0 1 27.424458-8.483299h275.195292a100.885439 100.885439 0 0 1 70.096914 28.11921A94.449833 94.449833 0 0 1 950.248248 96.34468v831.692389A97.594504 97.594504 0 0 1 851.081409 1023.986105H171.905571A97.594504 97.594504 0 0 1 72.6656 928.037069V343.603591a33.238443 33.238443 0 0 1 0-5.119232v-21.500775h0.548489a29.691546 29.691546 0 0 1 10.969783-22.597753l343.025118-285.214361a35.724927 35.724927 0 0 1 26.254347-8.044508 32.433992 32.433992 0 0 1 31.044487 31.995201v300.425793a32.287728 32.287728 0 0 1-0.18283 3.656595 31.37358 31.37358 0 0 1-8.007942 25.157369 33.677234 33.677234 0 0 1-24.755144 10.969783h-310.810521v540.700609a43.879132 43.879132 0 0 0 13.565965 31.666108 46.987238 46.987238 0 0 0 32.72652 13.127173h642.097971a53.715371 53.715371 0 0 0 37.370394-14.992037 50.314739 50.314739 0 0 0 15.50396-36.200284V117.772323a52.069904 52.069904 0 0 0-52.874354-51.192321H569.962434v-0.36566zM167.737054 309.121906h250.696109v-208.425879L167.737054 309.121906z m131.381435 194.494254H727.195992a31.995201 31.995201 0 1 1 0 63.953836H299.118489a31.995201 31.995201 0 1 1 0-63.953836z m0 191.934639H727.195992a31.995201 31.995201 0 1 1 0 63.953835H299.118489a31.995201 31.995201 0 1 1 0-63.953835z m0 0" fill="#333333" p-id="20377"></path></svg>