<?xml version="1.0" standalone="no"?><!DOCTYPE svg PUBLIC "-//W3C//DTD SVG 1.1//EN" "http://www.w3.org/Graphics/SVG/1.1/DTD/svg11.dtd"><svg t="1611488700062" class="icon" viewBox="0 0 1024 1024" version="1.1" xmlns="http://www.w3.org/2000/svg" p-id="30580" xmlns:xlink="http://www.w3.org/1999/xlink" width="200" height="200"><defs><style type="text/css"></style></defs><path d="M652.928 279.530667c23.232 0 31.637333 2.389333 40.128 6.912 8.490667 4.501333 15.146667 11.114667 19.712 19.562666 4.522667 8.426667 6.954667 16.789333 6.954667 39.872v131.712L512 597.333333l-2.944 186.368c-2.133333 21.696-4.992 29.376-9.792 37.056-4.8 7.68-11.349333 13.589333-19.52 17.6-8.170667 3.989333-16.128 6.058667-38.08 6.058667H262.186667c-23.253333 0-31.658667-2.410667-40.149334-6.912a47.189333 47.189333 0 0 1-19.690666-19.562667c-4.544-8.448-6.954667-16.810667-6.954667-39.893333V345.898667c0-23.082667 2.410667-31.445333 6.954667-39.893334 4.544-8.426667 11.2-15.04 19.690666-19.541333 8.490667-4.522667 16.917333-6.912 40.149334-6.912h390.762666z" fill="#1296db" opacity=".1" p-id="30581"></path><path d="M208 80h517.056c17.002667 0 31.36 0 43.136 0.96 12.330667 1.002667 24.106667 3.2 35.349333 8.917333a90.666667 90.666667 0 0 1 39.637334 39.637334c5.717333 11.221333 7.893333 23.04 8.917333 35.349333 0.96 11.754667 0.96 26.133333 0.96 43.136v238.613333a26.666667 26.666667 0 1 1-53.333333 0V209.066667c0-18.346667-0.021333-30.528-0.789334-39.872-0.725333-9.024-2.026667-13.013333-3.285333-15.466667a37.333333 37.333333 0 0 0-16.32-16.32c-2.453333-1.258667-6.464-2.56-15.488-3.285333-9.322667-0.768-21.504-0.789333-39.850667-0.789334H209.066667c-18.346667 0-30.528 0.021333-39.872 0.789334-9.024 0.725333-13.013333 2.026667-15.466667 3.285333a37.333333 37.333333 0 0 0-16.32 16.32c-1.258667 2.453333-2.56 6.442667-3.285333 15.466667C133.333333 178.56 133.333333 190.72 133.333333 209.066667v602.581333c0 18.346667 0.021333 30.528 0.789334 39.872 0.725333 9.024 2.026667 13.013333 3.285333 15.488 3.584 7.018667 9.28 12.736 16.32 16.298667 2.453333 1.28 6.442667 2.56 15.466667 3.285333 9.344 0.768 21.504 0.789333 39.872 0.789333h232.277333a26.666667 26.666667 0 1 1 0 53.333334H208c-17.002667 0-31.36 0-43.136-0.96-12.330667-1.002667-24.128-3.2-35.349333-8.917334a90.666667 90.666667 0 0 1-39.637334-39.616c-5.717333-11.242667-7.893333-23.04-8.917333-35.370666-0.96-11.754667-0.96-26.112-0.96-43.136V208c0-17.002667 0-31.36 0.96-43.136 1.002667-12.330667 3.2-24.128 8.917333-35.349333a90.666667 90.666667 0 0 1 39.637334-39.637334c11.221333-5.717333 23.04-7.893333 35.349333-8.917333 11.754667-0.96 26.133333-0.96 43.136-0.96z" fill="#1296db" p-id="30582"></path><path d="M237.184 308.501333c0-14.72 11.946667-26.666667 26.666667-26.666666h359.317333a26.666667 26.666667 0 0 1 0 53.333333H263.829333c-14.72 0-26.666667-11.946667-26.666666-26.666667zM237.184 487.936c0-14.72 11.946667-26.666667 26.666667-26.666667h179.648a26.666667 26.666667 0 0 1 0 53.333334h-179.626667c-14.72 0-26.666667-11.946667-26.666667-26.666667zM237.184 667.349333c0-14.72 11.946667-26.666667 26.666667-26.666666h78.613333a26.666667 26.666667 0 1 1 0 53.333333h-78.613333c-14.72 0-26.666667-11.946667-26.666667-26.666667zM712.981333 928c-107.029333 0-193.685333-86.634667-193.685333-193.365333s86.656-193.365333 193.706667-193.365334c107.008 0 193.664 86.634667 193.664 193.365334S820.010667 928 712.981333 928z m0 53.333333C849.408 981.333333 960 870.890667 960 734.634667c0-136.256-110.592-246.698667-247.018667-246.698667-136.426667 0-247.018667 110.442667-247.018666 246.698667 0 136.256 110.592 246.698667 247.04 246.698666z" fill="#1296db" p-id="30583"></path><path d="M712.981333 607.04c14.72 0 26.666667 11.946667 26.666667 26.666667v89.877333l70.784 70.677333A26.666667 26.666667 0 0 1 772.736 832l-86.4-86.314667v-111.978666c0-14.72 11.925333-26.666667 26.666667-26.666667z" fill="#1296db" p-id="30584"></path></svg>