<?xml version="1.0" standalone="no"?><!DOCTYPE svg PUBLIC "-//W3C//DTD SVG 1.1//EN" "http://www.w3.org/Graphics/SVG/1.1/DTD/svg11.dtd"><svg t="1611643406957" class="icon" viewBox="0 0 1024 1024" version="1.1" xmlns="http://www.w3.org/2000/svg" p-id="7294" xmlns:xlink="http://www.w3.org/1999/xlink" width="200" height="200"><defs><style type="text/css"></style></defs><path d="M959 349.4v550.8c0 33.1-26.9 60-60 60H219c-33.1 0-60-26.9-60-60v-776c0-33.1 26.9-60 60-60h454.8L959 349.4z" fill="#E9EAEE" p-id="7295"></path><path d="M725 349.4l234.1 212.1V349.4z" fill="#D2D6DD" p-id="7296"></path><path d="M672 64.2v245.2c0 22.1 17.9 40 40 40h245.2L672 64.2z" fill="#A7ADBB" p-id="7297"></path><path d="M84 502m40 0l688 0q40 0 40 40l0 272q0 40-40 40l-688 0q-40 0-40-40l0-272q0-40 40-40Z" fill="#BB6F49" p-id="7298"></path><path d="M64 482m40 0l688 0q40 0 40 40l0 272q0 40-40 40l-688 0q-40 0-40-40l0-272q0-40 40-40Z" fill="#E89870" p-id="7299"></path><path d="M135.6 782.6c7.68 0 14.613-0.907 20.8-2.72 6.187-1.813 11.413-4.747 15.68-8.8 4.267-4.053 7.52-9.44 9.76-16.16 2.24-6.72 3.36-14.88 3.36-24.48V566.6c0-4.267-1.6-8.107-4.8-11.52-3.2-3.413-8.533-5.12-16-5.12-7.467 0-12.8 1.813-16 5.44-3.2 3.627-4.8 7.36-4.8 11.2v145.6c0 6.4-0.053 11.787-0.16 16.16-0.107 4.373-0.587 7.84-1.44 10.4-0.853 2.56-2.187 4.427-4 5.6-1.813 1.173-4.427 1.76-7.84 1.76-4.267 0-8-1.333-11.2-4a415.838 415.838 0 0 0-9.28-7.52c-2.773-2.133-5.493-3.253-8.16-3.36-2.667-0.107-5.173 0.267-7.52 1.12-2.347 0.853-4.373 2.027-6.08 3.52-1.707 1.493-2.88 2.773-3.52 3.84-2.133 3.413-2.933 6.827-2.4 10.24 0.533 3.413 1.867 6.613 4 9.6 2.133 2.987 4.693 5.76 7.68 8.32 2.987 2.56 5.973 4.693 8.96 6.4 4.907 2.987 9.92 5.12 15.04 6.4 5.12 1.28 11.093 1.92 17.92 1.92z m121.12-4.96c8.427 2.667 17.44 3.787 27.04 3.36 26.24-0.853 45.76-7.733 58.56-20.64 12.8-12.907 19.413-29.92 19.84-51.04 0.213-7.893-0.693-14.933-2.72-21.12-2.027-6.187-5.333-11.733-9.92-16.64s-10.4-9.493-17.44-13.76c-7.04-4.267-15.36-8.533-24.96-12.8-3.84-1.707-8.16-3.52-12.96-5.44a83.65 83.65 0 0 1-13.76-7.04c-4.373-2.773-8.053-5.973-11.04-9.6-2.987-3.627-4.48-7.893-4.48-12.8 0-2.987 0.64-6.027 1.92-9.12a28.276 28.276 0 0 1 5.28-8.32c2.24-2.453 4.96-4.48 8.16-6.08 3.2-1.6 6.827-2.4 10.88-2.4 3.627 0 7.2 0.533 10.72 1.6 3.52 1.067 6.827 2.347 9.92 3.84a78.108 78.108 0 0 1 8.8 4.96 283.467 283.467 0 0 1 7.36 4.96c1.493 1.28 3.413 2.133 5.76 2.56 2.347 0.427 4.747 0.373 7.2-0.16 2.453-0.533 4.8-1.493 7.04-2.88 2.24-1.387 4.107-3.253 5.6-5.6 2.773-4.693 3.147-9.653 1.12-14.88-2.027-5.227-5.867-10.08-11.52-14.56s-12.747-8.213-21.28-11.2c-8.533-2.987-17.813-4.587-27.84-4.8-8.96-0.213-17.76 0.96-26.4 3.52-8.64 2.56-16.373 6.4-23.2 11.52-6.827 5.12-12.32 11.573-16.48 19.36-4.16 7.787-6.24 16.8-6.24 27.04 0 9.6 1.707 17.92 5.12 24.96 3.413 7.04 8 13.12 13.76 18.24 5.76 5.12 12.533 9.547 20.32 13.28 7.787 3.733 16.16 7.2 25.12 10.4 3.2 1.067 6.773 2.56 10.72 4.48a49.393 49.393 0 0 1 10.88 7.2c3.307 2.88 6.133 6.24 8.48 10.08 2.347 3.84 3.52 8.32 3.52 13.44 0 5.333-0.96 10.08-2.88 14.24s-4.48 7.627-7.68 10.4c-3.2 2.773-6.88 4.907-11.04 6.4-4.16 1.493-8.373 2.24-12.64 2.24-5.12 0-9.867-0.64-14.24-1.92a70.762 70.762 0 0 1-12.48-4.96 97.247 97.247 0 0 1-11.2-6.72 591.27 591.27 0 0 0-10.08-6.88c-3.627-2.347-7.52-3.253-11.68-2.72-4.16 0.533-7.733 3.147-10.72 7.84-1.707 2.347-2.613 5.227-2.72 8.64-0.107 3.413 0.587 6.933 2.08 10.56 1.493 3.627 3.893 7.2 7.2 10.72 3.307 3.52 7.733 6.667 13.28 9.44 6.187 3.2 13.493 6.133 21.92 8.8z m226.72 4.96c17.28 0 32.267-3.04 44.96-9.12 12.693-6.08 23.2-14.4 31.52-24.96s14.507-23.04 18.56-37.44c4.053-14.4 6.08-29.92 6.08-46.56s-2.027-32.107-6.08-46.4-10.24-26.72-18.56-37.28c-8.32-10.56-18.827-18.88-31.52-24.96-12.693-6.08-27.68-9.12-44.96-9.12-17.92 0-33.227 3.04-45.92 9.12-12.693 6.08-23.147 14.4-31.36 24.96-8.213 10.56-14.24 23.04-18.08 37.44-3.84 14.4-5.76 29.813-5.76 46.24 0 17.067 2.133 32.853 6.4 47.36 4.267 14.507 10.667 26.987 19.2 37.44s19.093 18.613 31.68 24.48c12.587 5.867 27.2 8.8 43.84 8.8z m0-36.48c-11.307 0-20.747-2.347-28.32-7.04s-13.707-10.88-18.4-18.56c-4.693-7.68-8-16.427-9.92-26.24a154.628 154.628 0 0 1-2.88-29.76c0-11.093 1.067-21.547 3.2-31.36 2.133-9.813 5.547-18.4 10.24-25.76 4.693-7.36 10.827-13.227 18.4-17.6 7.573-4.373 16.8-6.56 27.68-6.56 10.88 0 20.107 2.133 27.68 6.4s13.707 10.133 18.4 17.6c4.693 7.467 8.107 16.213 10.24 26.24 2.133 10.027 3.2 20.693 3.2 32 0 11.307-0.96 21.867-2.88 31.68-1.92 9.813-5.227 18.347-9.92 25.6s-10.827 12.96-18.4 17.12c-7.573 4.16-17.013 6.24-28.32 6.24z m294.4 33.28c7.467 0 12.267-1.493 14.4-4.48 2.133-2.987 3.2-6.293 3.2-9.92V566.6c0-4.267-1.6-8.107-4.8-11.52-3.2-3.413-8.533-5.12-16-5.12-7.467 0-12.8 1.813-16 5.44-3.2 3.627-4.8 7.36-4.8 11.2v130.88l-101.12-136c-1.92-2.56-4.213-5.12-6.88-7.68-2.667-2.56-6.133-3.84-10.4-3.84-7.68 0-12.587 1.547-14.72 4.64-2.133 3.093-3.2 6.56-3.2 10.4v197.76c0 3.84 1.6 7.573 4.8 11.2 3.2 3.627 8.533 5.44 16 5.44 7.467 0 12.8-1.707 16-5.12 3.2-3.413 4.8-7.253 4.8-11.52v-126.4l100.8 131.52c1.92 2.56 4.32 5.12 7.2 7.68 2.88 2.56 6.453 3.84 10.72 3.84z" fill="#FFFFFF" p-id="7300"></path></svg>