<?xml version="1.0" standalone="no"?><!DOCTYPE svg PUBLIC "-//W3C//DTD SVG 1.1//EN" "http://www.w3.org/Graphics/SVG/1.1/DTD/svg11.dtd"><svg t="1611488900718" class="icon" viewBox="0 0 1024 1024" version="1.1" xmlns="http://www.w3.org/2000/svg" p-id="53787" xmlns:xlink="http://www.w3.org/1999/xlink" width="200" height="200"><defs><style type="text/css"></style></defs><path d="M725.333333 725.333333m-170.666666 0a170.666667 170.666667 0 1 0 341.333333 0 170.666667 170.666667 0 1 0-341.333333 0Z" fill="#F8D57E" p-id="53788"></path><path d="M298.666667 128a85.333333 85.333333 0 1 1 170.666666 0 42.666667 42.666667 0 0 1 0 85.333333H298.666667a42.666667 42.666667 0 1 1 0-85.333333z" fill="#2C2543" p-id="53789"></path><path d="M170.666667 128a128 128 0 0 0-128 128v512a128 128 0 0 0 128 128h192.682666a382.677333 382.677333 0 0 1-42.837333-85.333333H170.666667a42.666667 42.666667 0 0 1-42.666667-42.666667V256a42.666667 42.666667 0 0 1 42.666667-42.666667h426.666666a42.666667 42.666667 0 0 1 42.666667 42.666667v45.013333a388.138667 388.138667 0 0 1 85.333333 0V256a128 128 0 0 0-128-128 42.666667 42.666667 0 1 0 0 85.333333H170.666667a42.666667 42.666667 0 0 0 0-85.333333z" fill="#2C2543" p-id="53790"></path><path d="M298.666667 682.666667c0-14.421333 0.810667-28.672 2.346666-42.666667H256a42.666667 42.666667 0 1 0 0 85.333333h45.013333A388.138667 388.138667 0 0 1 298.666667 682.666667zM320.512 554.666667a382.549333 382.549333 0 0 1 42.837333-85.333334H256a42.666667 42.666667 0 1 0 0 85.333334h64.512zM441.301333 384a383.445333 383.445333 0 0 1 108.8-61.866667A42.666667 42.666667 0 0 0 512 298.666667H256a42.666667 42.666667 0 0 0 0 85.333333h185.301333zM640 576a42.666667 42.666667 0 1 1 85.333333 0v82.346667l71.722667 41.386666a42.666667 42.666667 0 1 1-42.666667 73.898667l-92.373333-53.333333a42.666667 42.666667 0 0 1-9.557333-7.509334A42.538667 42.538667 0 0 1 640 682.666667v-106.666667z" fill="#2C2543" p-id="53791"></path><path d="M682.666667 981.333333a298.666667 298.666667 0 1 0 0-597.333333 298.666667 298.666667 0 0 0 0 597.333333z m213.333333-298.666666a213.333333 213.333333 0 1 1-426.666667 0 213.333333 213.333333 0 0 1 426.666667 0z" fill="#2C2543" p-id="53792"></path></svg>