<?xml version="1.0" standalone="no"?><!DOCTYPE svg PUBLIC "-//W3C//DTD SVG 1.1//EN" "http://www.w3.org/Graphics/SVG/1.1/DTD/svg11.dtd"><svg t="1610519330120" class="icon" viewBox="0 0 1024 1024" version="1.1" xmlns="http://www.w3.org/2000/svg" p-id="17656" xmlns:xlink="http://www.w3.org/1999/xlink" width="200" height="200"><defs><style type="text/css"></style></defs><path d="M668.809 351.953c0 5.534-0.326 13.51-0.977 23.926-1.953 70.964-2.93 120.93-2.93 149.902v40.04c0 55.013 2.767 89.762 8.301 104.247 5.534 14.486 15.788 21.729 30.762 21.729 18.555 0 32.47-9.44 41.748-28.32 9.277-18.88 14.73-48.666 16.357-89.356h24.903v4.883c0 53.386-8.545 92.692-25.635 117.92-17.09 25.228-43.864 37.842-80.322 37.842-38.087 0-64.779-13.102-80.078-39.307-15.3-26.205-22.95-80.973-22.95-164.307 0-10.09 0.489-36.214 1.465-78.369 0.977-42.155 1.79-76.741 2.442-103.76-12.045-0.65-28.646-1.22-49.805-1.709-21.16-0.488-46.875-0.895-77.149-1.22 0 154.297-7.568 257.65-22.705 310.058-15.136 52.41-41.91 78.614-80.322 78.614-23.438 0-40.934-9.522-52.49-28.565-11.556-19.043-17.334-47.77-17.334-86.181v-19.043h23.926c0.65 18.229 3.906 31.494 9.765 39.794 5.86 8.301 14.974 12.452 27.344 12.452 27.344 0 46.712-20.752 58.105-62.256 11.394-41.504 17.904-123.128 19.532-244.873h-21.973c-25.065 0-44.922 4.394-59.57 13.183-14.649 8.79-23.763 21.973-27.344 39.551h-22.95c2.28-45.573 14.975-77.474 38.087-95.703 23.112-18.23 63.476-27.344 121.093-27.344 11.394 0 45.329 1.058 101.807 3.174 56.478 2.116 107.178 3.174 152.1 3.174 22.135 0 38.655-2.36 49.56-7.08 10.905-4.72 16.358-11.8 16.358-21.24v-0.977h22.949v2.93c0 34.18-7.731 58.919-23.193 74.218-15.463 15.3-40.283 22.95-74.463 22.95-6.185 0-10.987-0.082-14.405-0.244a192.755 192.755 0 0 1-10.01-0.733z" fill="#1296db" p-id="17657"></path><path d="M293.978 158.138c5.627 0.514 8.445-0.75 8.265-3.849-0.232-3.977-1.57-4.539-8.115-4.538H294a0.25 0.25 0 0 0 0 0.5h0.128c6.308 0 7.405 0.46 7.615 4.067 0.157 2.686-2.354 3.812-7.72 3.322a0.25 0.25 0 1 0-0.045 0.498zM293 161.25h9.523a0.25 0.25 0 0 0 0-0.5H293a0.25 0.25 0 0 0 0 0.5z" fill="#1296db" p-id="17658"></path><path d="M668.809 351.953c0 5.534-0.326 13.51-0.977 23.926-1.953 70.964-2.93 120.93-2.93 149.902v40.04c0 55.013 2.767 89.762 8.301 104.247 5.534 14.486 15.788 21.729 30.762 21.729 18.555 0 32.47-9.44 41.748-28.32 9.277-18.88 14.73-48.666 16.357-89.356h24.903v4.883c0 53.386-8.545 92.692-25.635 117.92-17.09 25.228-43.864 37.842-80.322 37.842-38.087 0-64.779-13.102-80.078-39.307-15.3-26.205-22.95-80.973-22.95-164.307 0-10.09 0.489-36.214 1.465-78.369 0.977-42.155 1.79-76.741 2.442-103.76-12.045-0.65-28.646-1.22-49.805-1.709-21.16-0.488-46.875-0.895-77.149-1.22 0 154.297-7.568 257.65-22.705 310.058-15.136 52.41-41.91 78.614-80.322 78.614-23.438 0-40.934-9.522-52.49-28.565-11.556-19.043-17.334-47.77-17.334-86.181v-19.043h23.926c0.65 18.229 3.906 31.494 9.765 39.794 5.86 8.301 14.974 12.452 27.344 12.452 27.344 0 46.712-20.752 58.105-62.256 11.394-41.504 17.904-123.128 19.532-244.873h-21.973c-25.065 0-44.922 4.394-59.57 13.183-14.649 8.79-23.763 21.973-27.344 39.551h-22.95c2.28-45.573 14.975-77.474 38.087-95.703 23.112-18.23 63.476-27.344 121.093-27.344 11.394 0 45.329 1.058 101.807 3.174 56.478 2.116 107.178 3.174 152.1 3.174 22.135 0 38.655-2.36 49.56-7.08 10.905-4.72 16.358-11.8 16.358-21.24v-0.977h22.949v2.93c0 34.18-7.731 58.919-23.193 74.218-15.463 15.3-40.283 22.95-74.463 22.95-6.185 0-10.987-0.082-14.405-0.244a192.755 192.755 0 0 1-10.01-0.733z" fill="#1296db" p-id="17659"></path></svg>