<?xml version="1.0" standalone="no"?><!DOCTYPE svg PUBLIC "-//W3C//DTD SVG 1.1//EN" "http://www.w3.org/Graphics/SVG/1.1/DTD/svg11.dtd"><svg t="1611922894114" class="icon" viewBox="0 0 1024 1024" version="1.1" xmlns="http://www.w3.org/2000/svg" p-id="13883" xmlns:xlink="http://www.w3.org/1999/xlink" width="200" height="200"><defs><style type="text/css"></style></defs><path d="M973.312 815.616l-926.208-4.096c-7.68 0-14.336-6.656-14.336-14.336l3.584-702.464c0-7.68 6.656-14.336 14.336-14.336l926.208 4.096c7.68 0 14.336 6.656 14.336 14.336l-3.072 702.464c-0.512 8.192-6.656 14.336-14.848 14.336z" fill="#EFEFFD" p-id="13884"></path><path d="M945.152 838.656L75.264 834.56c-17.408 0-33.792-7.168-46.08-19.456-12.288-12.288-18.944-28.672-18.944-46.592L13.312 122.88c0-17.408 7.168-33.792 19.456-46.08 12.288-12.288 28.672-18.944 46.08-18.944h0.512l869.376 4.096c17.408 0 33.792 7.168 46.08 19.456 12.288 12.288 18.944 28.672 18.944 46.592l-3.072 645.632c0 17.408-7.168 33.792-19.456 46.08-12.288 12.288-28.672 18.944-46.08 18.944z m0-46.08c5.12 0 10.24-2.048 13.824-5.632 3.584-3.584 5.632-8.704 5.632-13.824l3.072-645.632c0-5.12-2.048-10.24-5.632-13.824-3.584-3.584-8.704-5.632-13.824-5.632l-869.376-4.096c-5.12 0-10.24 2.048-13.824 5.632-3.584 3.584-5.632 8.704-5.632 13.824L56.32 769.024c0 5.12 2.048 10.24 5.632 13.824 3.584 3.584 8.704 5.632 13.824 5.632l869.376 4.096z" fill="#333333" p-id="13885"></path><path d="M26.4704 312.22784l0.20992-46.08 963.584 4.46464-0.20992 46.08z" fill="#333333" p-id="13886"></path><path d="MNaN NaNaNaN NaN NaN 1 0 NaN NaN NaN NaN NaN 1 0 NaN NaNZ" fill="#6462F3" p-id="13887"></path><path d="MNaN NaNaNaN NaN NaN 1 0 NaN NaN NaN NaN NaN 1 0 NaN NaNZ" fill="#6462F3" p-id="13888"></path><path d="MNaN NaNaNaN NaN NaN 1 0 NaN NaN NaN NaN NaN 1 0 NaN NaNZ" fill="#6462F3" p-id="13889"></path><path d="M811.008 648.192H212.992c-4.608 0-8.192-3.584-8.192-8.192V457.216c0-4.608 3.584-8.192 8.192-8.192h598.528c4.608 0 8.192 3.584 8.192 8.192v183.296c-0.512 4.096-4.096 7.68-8.704 7.68z" fill="#6462F3" p-id="13890"></path><path d="M345.088 487.936h25.6l15.872 57.344c3.584 12.8 6.144 25.088 10.24 37.888h1.024c3.584-13.312 6.656-25.088 10.24-37.888l15.872-57.344h24.576l-37.376 117.76h-28.672l-37.376-117.76zM462.848 487.936h24.576l35.328 62.976 12.288 25.6h1.024c-1.536-12.288-3.072-27.648-3.072-41.472v-47.104h23.04v117.76h-24.576l-35.84-62.976-12.288-25.088h-1.024c1.024 12.8 3.072 27.648 3.072 40.96v47.104h-23.04v-117.76zM579.584 547.328c0-38.912 25.6-61.44 56.32-61.44 15.36 0 27.648 7.168 35.84 15.36l-12.8 14.848c-6.144-5.632-13.312-9.728-22.528-9.728-18.432 0-32.256 15.36-32.256 40.448 0 25.6 12.288 40.96 31.744 40.96 10.24 0 18.432-4.608 25.088-11.776l12.8 14.848c-10.24 11.264-23.04 17.408-38.912 17.408-30.208-0.512-55.296-21.504-55.296-60.928z" fill="#FFFFFF" p-id="13891"></path><path d="M771.584 966.144H215.552c-12.8 0-23.04-10.24-23.04-23.04s10.24-23.04 23.04-23.04h556.032c12.8 0 23.04 10.24 23.04 23.04s-10.24 23.04-23.04 23.04z" fill="#333333" p-id="13892"></path><path d="M470.528 834.56h46.08v108.544h-46.08z" fill="#333333" p-id="13893"></path></svg>